<svg xmlns:mydata="http://www.w3.org/2000/svg" mydata:contrastcolor="151f42" mydata:template="Contrast" mydata:presentation="2.5" mydata:layouttype="undefined" mydata:specialfontid="undefined" mydata:id1="114" mydata:id2="114" mydata:companyname="Simple Todo" mydata:companytagline="" version="1.1" xmlns="http://www.w3.org/2000/svg" xmlns:xlink="http://www.w3.org/1999/xlink" viewBox="0 0 550 470" style="height: 790px;"><defs><linearGradient x1="145.99996" y1="235" x2="404.00004" y2="235" gradientUnits="userSpaceOnUse" id="color-159126"><stop offset="0" stop-color="#4568dc"></stop><stop offset="1" stop-color="#b06ab3"></stop></linearGradient></defs><g fill="url(#color-159126)" fill-rule="evenodd" stroke="none" stroke-width="1" stroke-linecap="butt" stroke-linejoin="miter" stroke-miterlimit="10" stroke-dasharray="" stroke-dashoffset="0" font-family="none" font-weight="none" font-size="none" text-anchor="none" style="mix-blend-mode: normal"><g data-paper-data="{&quot;isGlobalGroup&quot;:true,&quot;bounds&quot;:{&quot;x&quot;:145.99995566460308,&quot;y&quot;:105.99999999999999,&quot;width&quot;:258.0000886707939,&quot;height&quot;:258}}"><g data-paper-data="{&quot;isIcon&quot;:&quot;true&quot;,&quot;iconType&quot;:&quot;icon&quot;,&quot;rawIconId&quot;:&quot;1676493&quot;,&quot;selectedEffects&quot;:{&quot;container&quot;:&quot;enclosed_circle_outline3&quot;,&quot;transformation&quot;:&quot;&quot;,&quot;pattern&quot;:&quot;&quot;},&quot;isDetailed&quot;:false,&quot;fillRule&quot;:&quot;evenodd&quot;,&quot;blockLetter&quot;:&quot;O&quot;,&quot;blockLetterId&quot;:0,&quot;relativeBoundsIconToContainer&quot;:{&quot;top&quot;:4.5691449295769613e-7,&quot;left&quot;:0.05397509434356161},&quot;widthRatioIconToContainer&quot;:0.8920498113128768,&quot;heightRatioIconToContainer&quot;:0.933694833485062,&quot;bounds&quot;:{&quot;x&quot;:207.73146026559976,&quot;y&quot;:167.61015232473855,&quot;width&quot;:139.38762368737144,&quot;height&quot;:134.77960667972903},&quot;iconStyle&quot;:&quot;standalone&quot;,&quot;suitableAsStandaloneIcon&quot;:true}" id="element-id-41546"><g data-paper-data="{&quot;isPathIcon&quot;:true}" id="element-id-12593"><path d="M301.3532,172.90695c-8.34865,-3.53052 -17.09263,-5.29679 -26.23193,-5.29679c-3.30592,0 -6.56002,0.23069 -9.76228,0.6931h4.50817l0.60468,0.04878l1.2368,0.20122l1.14229,0.37907l1.11078,0.58029l0.96444,0.71952l0.87196,0.8994l0.4746,0.60163l0.18191,0.28557l0.08435,0.13923l0.3811,0.66057c7.78868,0.21647 15.25928,1.83741 22.41381,4.86285c7.44214,3.14738 14.03264,7.59153 19.77354,13.33243c3.47666,3.47666 6.4777,7.26531 9.00313,11.36595h0.62704l0.6057,0.04878l1.2368,0.2002l1.14229,0.38008l1.10977,0.57927l0.96444,0.71952l0.87196,0.8994l0.4746,0.60163l0.18191,0.28557l0.08232,0.13618l2.59657,4.48683c-0.25305,-0.65244 -0.51626,-1.30184 -0.78964,-1.9492c-3.4106,-8.06206 -8.22365,-15.20237 -14.44118,-21.4199c-6.21686,-6.21686 -13.35682,-11.03058 -21.4199,-14.44118z" id="element-id-24053"></path><path d="M237.75712,227.78343c0.70224,1.21546 1.999,1.96546 3.40247,1.96648h28.70756c1.40347,-0.00102 2.70023,-0.75102 3.40145,-1.96648l14.37411,-24.89249c0.70224,-1.21749 0.70224,-2.71649 0,-3.93296l-14.37411,-24.91281c-0.70123,-1.21546 -1.99798,-1.96546 -3.40145,-1.96648h-28.76651c-1.38314,0.02236 -2.65246,0.7683 -3.34352,1.96648l-14.45236,24.91281c-0.70224,1.21647 -0.70224,2.71547 0,3.93296z" id="element-id-63497"></path><path d="M207.73146,234.99996c0,9.13931 1.76526,17.88328 5.29679,26.23193c2.41262,5.7033 5.52647,10.9442 9.34256,15.72371l-2.33132,-4.01934l-0.08232,-0.15041l-0.15854,-0.30386l-0.28354,-0.71342l-0.34248,-1.20529l-0.13923,-1.19513l0.05488,-1.25204l0.24289,-1.17786l0.44614,-1.17176l0.26321,-0.55183l0.35163,-0.60671c-0.9431,-1.74595 -1.80693,-3.54373 -2.58945,-5.39537c-3.25816,-7.70332 -4.88724,-15.77351 -4.88724,-24.21261c0,-8.43808 1.62908,-16.50929 4.88724,-24.21261c0.78253,-1.85063 1.64636,-3.64942 2.58945,-5.39537l-0.35163,-0.6057l-0.26321,-0.55285l-0.44614,-1.17074l-0.24289,-1.17887l-0.05488,-1.25204l0.13923,-1.19412l0.34248,-1.20631l0.28354,-0.71342l0.15854,-0.30386l0.08232,-0.15041l1.89433,-3.26527l0.437,-0.75407c-3.81643,4.77985 -6.93061,10.02109 -9.34256,15.72371c-3.53153,8.34865 -5.29679,17.09263 -5.29679,26.23193z" id="element-id-20495"></path><path d="M346.55277,233.03348l-14.41272,-24.91281c-0.70224,-1.21546 -1.999,-1.96445 -3.40247,-1.96648h-28.70756c-1.40347,0.00203 -2.70023,0.75102 -3.40145,1.96648l-14.37411,24.91281c-0.70224,1.21749 -0.70224,2.71649 0,3.93296l14.37411,24.91281c0.70123,1.21546 1.99798,1.96546 3.40145,1.96648h28.76651c1.40448,-0.00102 2.70023,-0.75102 3.40247,-1.96648l14.39342,-24.91281c0.70224,-1.21647 0.70224,-2.71547 0,-3.93296z" id="element-id-48524"></path><path d="M223.30476,271.04193l14.45236,24.91383c0.69106,1.19716 1.96038,1.94311 3.34352,1.96546h28.76651c1.40347,-0.00102 2.70023,-0.75001 3.40145,-1.96546l14.37411,-24.91383c0.70224,-1.21647 0.70224,-2.71547 0,-3.93194l-14.37411,-24.89351c-0.70123,-1.21546 -1.99798,-1.96546 -3.40145,-1.96648h-28.70756c-1.40347,0.00102 -2.70023,0.75102 -3.40247,1.96648l-14.45236,24.89351c-0.70224,1.21647 -0.70224,2.71547 0,3.93194z" id="element-id-74209"></path><path d="M337.21427,261.23189c-3.4106,8.06308 -8.22365,15.20237 -14.44118,21.4199c-6.21686,6.21686 -13.35682,11.03058 -21.4199,14.44118c-8.34865,3.53153 -17.09263,5.29679 -26.23193,5.29679c-3.30592,0 -6.56002,-0.23069 -9.76228,-0.6931h4.50817l0.60468,-0.04878l1.2368,-0.2002l1.14229,-0.38008l1.11078,-0.58029l0.96444,-0.7185l0.87196,-0.8994l0.4746,-0.60163l0.18191,-0.28659l0.08435,-0.13923l0.3811,-0.66057c7.78767,-0.21545 15.25928,-1.8364 22.41381,-4.86285c7.44214,-3.14738 14.03264,-7.59153 19.77354,-13.33243c3.47666,-3.47666 6.4777,-7.26531 9.00313,-11.36493h0.68598l0.16667,-0.00407l0.33842,-0.01423l0.75712,-0.11179l1.21546,-0.3059l1.10468,-0.47663l1.05692,-0.67379l0.89838,-0.7998l0.79167,-0.97155l0.34147,-0.49594l2.42177,-4.19008c-0.21748,0.55353 -0.44242,1.10502 -0.6748,1.65449z" id="element-id-34368"></path></g></g><g data-paper-data="{&quot;isContainerElementsWrapper&quot;:true}" id="element-id-13828"><path d="M183.7832,143.78316c-11.90063,11.90071 -21.11503,25.56813 -27.64321,41.00226c-6.76002,15.9825 -10.14004,32.72071 -10.14004,50.21463c0,17.49351 3.38001,34.23186 10.14004,50.21507c6.528,15.43345 15.74241,29.10087 27.64321,41.00226c11.90037,11.90021 25.56779,21.11459 41.00226,27.64312c15.9822,6.75967 32.72038,10.13951 50.21454,10.13951c17.49416,0 34.23254,-3.37984 50.21516,-10.13951c15.43345,-6.52853 29.10057,-15.74291 41.00138,-27.64312c11.90139,-11.90139 21.11606,-25.56881 27.64401,-41.00226c6.75967,-15.98321 10.13951,-32.72156 10.13951,-50.21507c0,-17.4938 -3.37984,-34.23201 -10.13951,-50.21463c-6.52853,-15.43432 -15.7432,-29.10174 -27.64401,-41.00226c-11.9008,-11.90074 -25.56793,-21.11512 -41.00138,-27.64312c-15.98262,-6.76002 -32.721,-10.14004 -50.21516,-10.14004c-17.4938,0 -34.23198,3.38001 -50.21454,10.14004c-15.43413,6.52806 -29.10155,15.74244 -41.00226,27.64312zM148.45241,235.00004c0,-17.16235 3.31546,-33.58211 9.94638,-49.25929c6.4038,-15.14033 15.44335,-28.54812 27.11863,-40.22338c11.67517,-11.67522 25.08296,-20.71474 40.22338,-27.11854c15.67717,-6.63092 32.09691,-9.94638 49.2592,-9.94638c17.16253,0 33.58229,3.31546 49.25929,9.94638c15.13965,6.40369 28.54727,15.4432 40.22285,27.11854c11.67558,11.67502 20.71527,25.08281 27.11908,40.22338c6.6308,15.67682 9.9462,32.09658 9.9462,49.25929c0,17.16247 -3.3154,33.5822 -9.9462,49.2592c-6.4038,15.14024 -15.4435,28.54815 -27.11908,40.22373c-11.67499,11.67558 -25.0826,20.71498 -40.22285,27.11819c-15.67759,6.6308 -32.09735,9.9462 -49.25929,9.9462c-17.16217,0 -33.58191,-3.3154 -49.2592,-9.9462c-15.14041,-6.4038 -28.54821,-15.4432 -40.22338,-27.11819c-11.67517,-11.67558 -20.71471,-25.08349 -27.11863,-40.22373c-6.63092,-15.677 -9.94638,-32.09673 -9.94638,-49.2592z" data-paper-data="{&quot;isAdditionalOutlinePath&quot;:true}" id="element-id-51451"></path><path d="M152.37636,235.00004c0,-67.72318 54.9005,-122.62364 122.62364,-122.62364c67.72321,0 122.62373,54.90046 122.62373,122.62364c0,67.72312 -54.90052,122.62364 -122.62373,122.62364c-67.72314,0 -122.62364,-54.90052 -122.62364,-122.62364zM259.73337,148.76823l14.01885,-1.32359l-0.44025,-4.66267l-9.38678,0.88618l-0.43732,-4.63198l9.38678,-0.88626l-0.44025,-4.66275l-9.38678,0.88626l-0.43732,-4.63207l9.38678,-0.88626l-0.44016,-4.66267l-14.01894,1.3235zM323.7716,135.44757l-1.71667,4.35764l-6.10587,-2.4052l-6.84361,17.37318l-4.35728,-1.71631l6.84273,-17.37318l-6.10587,-2.4052l1.71578,-4.35764zM251.17637,150.72777l-12.35495,4.52293l-8.02896,-21.93229l4.36908,-1.59944l6.41897,17.53429l7.98587,-2.92348zM219.86024,166.98423l3.8281,-2.6444l-5.30624,-7.68155l1.57178,-1.08578c3.16892,-2.18904 3.94319,-6.54367 1.75409,-9.71267c-2.20657,-3.19428 -6.5533,-4.01138 -9.74765,-1.80481l-5.37456,3.71265zM345.3319,150.1616c-4.95758,-4.10945 -12.33322,-3.41906 -16.44311,1.53906c-4.109,4.9582 -3.41915,12.33373 1.53932,16.44314c4.95847,4.10941 12.33411,3.41904 16.44311,-1.53911c4.10989,-4.95816 3.41915,-12.33373 -1.53932,-16.44309zM215.7202,152.80479l-2.64443,-3.8281l1.54642,-1.06822c1.06476,-0.73552 2.52215,-0.46898 3.25768,0.59578c0.71806,1.0394 0.45151,2.49679 -0.61325,3.23232zM342.34369,153.76749c2.96515,2.45781 3.37924,6.88313 0.92129,9.84853c-2.47746,2.98913 -6.90213,3.40335 -9.86817,0.94557c-2.98909,-2.47745 -3.40319,-6.90277 -0.92572,-9.89188c2.45795,-2.96542 6.88351,-3.3796 9.87261,-0.90223zM201.63466,168.87199l6.34524,10.86487l-3.08248,3.96518l-12.09418,-3.4696l9.21972,7.16717l-2.85555,3.67336l-18.43936,-14.33452l3.08246,-3.9652l17.67502,5.07615l-9.2975,-15.85275l3.08247,-3.9652l18.43944,14.33449l-2.85559,3.67325zM199.21286,235.00004c0,-41.85607 33.93107,-75.78718 75.78714,-75.78718c41.85616,0 75.78693,33.93111 75.78693,75.78718c0,41.85607 -33.93077,75.78684 -75.78693,75.78684c-41.85607,0 -75.78714,-33.93077 -75.78714,-75.78684zM347.90956,187.2424l-3.42092,-5.56525l19.89861,-12.22861l3.42003,5.56526c3.37215,5.48651 1.65194,12.69181 -3.83501,16.0636c-5.48606,3.37171 -12.69145,1.65149 -16.06271,-3.83501zM362.83374,175.86469l-11.91824,7.32421l0.98425,1.60131c2.03233,3.30769 6.31336,4.32971 9.62078,2.29693c3.28171,-2.01655 4.32979,-6.31345 2.29657,-9.62114zM193.44513,203.16315l1.80589,-4.28785l-21.5245,-9.06552l-1.80596,4.28785zM382.50358,210.72571c-1.41873,-6.28162 -7.68155,-10.23749 -13.96299,-8.81911c-6.28233,1.41829 -10.23793,7.68137 -8.8192,13.96299c1.41785,6.28171 7.68155,10.23749 13.96299,8.8192c6.28144,-1.41838 10.23704,-7.68146 8.8192,-13.96308zM377.93526,211.75721c0.84769,3.75689 -1.52602,7.51485 -5.28212,8.36307c-3.78713,0.85505 -7.545,-1.5184 -8.39358,-5.27538c-0.85479,-3.78704 1.51804,-7.54491 5.30517,-8.39996c3.75698,-0.84822 7.51485,1.52523 8.37052,5.31227zM179.41404,219.7805c0.48255,-1.10227 0.63187,-2.95416 1.46715,-3.92962c0.47971,-0.57033 1.22658,-0.71619 1.9238,-0.58922c1.27314,0.23179 2.11622,1.45012 1.88984,2.69302c-0.3311,1.81882 -1.32643,3.32879 -2.70464,4.36189l2.65303,3.83421c2.3457,-1.70257 4.06609,-4.27065 4.62906,-7.36269c0.68995,-3.78926 -1.83912,-7.44427 -5.62838,-8.13422c-3.88015,-0.70644 -7.01147,1.69867 -7.87778,5.42452c-0.27036,1.14084 -0.63719,2.29551 -1.58818,2.874c-0.48512,0.25617 -1.03904,0.37455 -1.58472,0.27523c-1.27314,-0.23187 -2.11613,-1.45021 -1.88434,-2.72335c0.25386,-1.39444 0.91561,-2.62067 1.80605,-3.55472l-2.7026,-3.90586c-1.869,1.66417 -3.22549,3.95401 -3.71114,6.62158c-0.68995,3.78926 1.83903,7.44427 5.65862,8.13971c3.24358,0.59055 6.34998,-1.16141 7.65424,-4.0245zM175.25768,252.49133c-0.05648,-0.54001 -0.11075,-1.05873 -0.08761,-1.49907c0.21148,-3.13903 2.50096,-5.87355 5.74454,-6.4641c3.81949,-0.69545 7.4745,1.83353 8.16445,5.62279c0.48574,2.66739 0.02341,5.2885 -1.13907,7.50439l-3.90586,-2.70269c0.50409,-1.1873 0.6911,-2.56826 0.43724,-3.9627c-0.23179,-1.27322 -1.45012,-2.11622 -2.72335,-1.88443c-0.54568,0.0994 -1.02237,0.4054 -1.38601,0.81613c-0.68605,0.8766 -0.62229,2.08642 -0.47324,3.24961c0.50259,3.79156 -1.58011,7.14598 -5.46026,7.85269c-3.78926,0.68986 -7.44427,-1.83903 -8.13422,-5.62794c-0.56297,-3.09231 0.14178,-6.10197 1.73688,-8.52206l3.83421,2.65294c-0.92563,1.4526 -1.32483,3.21698 -0.99364,5.03561c0.22629,1.24228 1.44462,2.08554 2.71776,1.85411c0.69722,-0.1268 1.34478,-0.5267 1.59262,-1.22986c0.27745,-0.76434 0.17317,-1.76189 0.07555,-2.69541zM359.7214,254.13068c-1.41873,6.28144 2.53687,12.54426 8.8192,13.96299c6.28144,1.41785 12.54426,-2.53776 13.96299,-8.8192c1.41785,-6.28144 -2.53776,-12.54488 -8.8192,-13.96317c-6.28144,-1.41829 -12.54514,2.53749 -13.96299,8.81937zM364.28972,255.16192c0.84858,-3.75698 4.60645,-6.13043 8.36343,-5.28221c3.78624,0.85514 6.15996,4.61274 5.31138,8.36972c-0.85479,3.78713 -4.61265,6.16085 -8.39978,5.30606c-3.75698,-0.84858 -6.12981,-4.60645 -5.27503,-8.39358zM171.92056,275.90202l1.80596,4.28812l21.5245,-9.0657l-1.80589,-4.28723zM367.80729,294.98663l-3.42003,5.56498l-19.89861,-12.22859l3.42092,-5.56498c3.37126,-5.48695 10.57665,-7.20716 16.06271,-3.83501c5.48695,3.37126 7.20716,10.57665 3.83501,16.0636zM201.63466,301.12797l-12.09416,3.46969l-3.08246,-3.96536l6.34519,-10.86483l-9.21972,7.16726l-2.85547,-3.67274l18.43936,-14.33452l3.08248,3.96447l-9.27862,15.87739l17.65616,-5.10034l3.08252,3.96536l-18.43944,14.33452l-2.85556,-3.67363zM350.9155,286.81119l11.91824,7.32421l0.98336,-1.60139c2.03322,-3.30742 1.01085,-7.58845 -2.29657,-9.62078c-3.28171,-2.01726 -7.58845,-1.01085 -9.62078,2.29657zM330.42811,301.85596c-4.95847,4.10989 -5.64833,11.48553 -1.53932,16.44311c4.10989,4.95847 11.48553,5.64922 16.44311,1.53932c4.95847,-4.109 5.64922,-11.48464 1.53932,-16.44311c-4.109,-4.95847 -11.48464,-5.64833 -16.44311,-1.53932zM206.58576,322.23251l3.8281,2.64416l5.30634,-7.68155l1.57178,1.08622c3.16892,2.1884 7.51574,1.37174 9.70484,-1.79736c2.20657,-3.19392 1.4323,-7.54854 -1.76198,-9.75556l-5.3746,-3.71265zM333.41721,305.4622c2.96515,-2.45795 7.39071,-2.04386 9.84778,0.92218c2.47746,2.98909 2.06337,7.41377 -0.90178,9.87172c-2.98909,2.47746 -7.41465,2.06337 -9.89211,-0.92572c-2.45795,-2.96515 -2.04298,-7.39071 0.94612,-9.86817zM218.3821,313.34149l2.64434,-3.82792l1.54651,1.06848c1.06476,0.73508 1.3313,2.19283 0.59578,3.25776c-0.71806,1.03922 -2.17545,1.30612 -3.24021,0.57015zM315.21221,312.82188l1.71667,4.35728l-6.10676,2.40564l6.84273,17.37327l-4.35728,1.71578l-6.84273,-17.37327l-6.10676,2.40564l-1.71667,-4.35817zM243.1475,341.20451l-12.35503,-4.5231l8.02896,-21.93183l4.36908,1.59962l-6.41888,17.53376l7.98587,2.92348zM257.53797,344.48444l14.01894,1.32297l0.44016,-4.66231l-9.38678,-0.88671l0.43732,-4.63216l9.38678,0.88671l0.44025,-4.6632l-9.38678,-0.88582l0.43732,-4.63216l9.38678,0.88671l0.44025,-4.6632l-14.01885,-1.32385z" data-paper-data="{&quot;isBaseLogoContainer&quot;:true}" id="element-id-44553"></path></g></g></g><g class="watermark-group" style="opacity:0.040000010281801224"><path class="watermark-path" d="M129.52,370.3a11.88,11.88,0,0,1,2.58,5.58,12,12,0,0,1,.11,3,11.81,11.81,0,0,1-.64,2.93,12.34,12.34,0,0,1-1.41,2.72,11.65,11.65,0,0,1-2.13,2.32,12,12,0,0,1-2.64,1.69,13,13,0,0,1-2.91.9,12.47,12.47,0,0,1-3,.12,12.17,12.17,0,0,1-2.93-.64,11.8,11.8,0,0,1-2.72-1.38,12.19,12.19,0,0,1-4-4.79,11.85,11.85,0,0,1-.89-2.92,12.14,12.14,0,0,1-.13-3,11.54,11.54,0,0,1,.64-2.92,11.67,11.67,0,0,1,3.5-5,11.44,11.44,0,0,1,2.67-1.69,11.64,11.64,0,0,1,2.92-.91,10.71,10.71,0,0,1,3-.12,11.68,11.68,0,0,1,5.66,2,11.7,11.7,0,0,1,2.34,2.12m-1.4,8.76a13,13,0,0,1-1.22,2.32,9.68,9.68,0,0,1-1.81,2,7.44,7.44,0,0,1-2.38,1.37,6.17,6.17,0,0,1-5.11-.46,8.73,8.73,0,0,1-3.85-4.58,6.69,6.69,0,0,1-.34-2.66,6.09,6.09,0,0,1,.77-2.47,7.15,7.15,0,0,1,1.75-2.11,9.58,9.58,0,0,1,1.09-.81,8.23,8.23,0,0,1,1.12-.63,8.14,8.14,0,0,1,1.19-.46,12.71,12.71,0,0,1,1.32-.37l2,2.38a12.83,12.83,0,0,0-1.56.17,7.86,7.86,0,0,0-1.23.32,4.5,4.5,0,0,0-1,.49,6.41,6.41,0,0,0-.93.67,4.49,4.49,0,0,0-1.15,1.39,3.87,3.87,0,0,0-.45,1.58,4.12,4.12,0,0,0,.26,1.63,6.11,6.11,0,0,0,2.36,2.82,4.43,4.43,0,0,0,1.57.53,3.91,3.91,0,0,0,1.62-.17,4.71,4.71,0,0,0,1.57-.89,10.5,10.5,0,0,0,.83-.79,5.71,5.71,0,0,0,.65-.93,10.13,10.13,0,0,0,.54-1.14,12.24,12.24,0,0,0,.44-1.49l2,2.33m-14.46,4.55a8.86,8.86,0,0,0,2.78,2.22,9,9,0,0,0,3.29.94,9.15,9.15,0,0,0,3.39-.37,8.68,8.68,0,0,0,3.11-1.69,8.8,8.8,0,0,0,2.22-2.78,9.15,9.15,0,0,0,1-3.29,8.95,8.95,0,0,0-4.83-8.76,9,9,0,0,0-6.73-.57,9,9,0,0,0-5.33,4.47,8.94,8.94,0,0,0-.57,6.71,8.76,8.76,0,0,0,1.7,3.12"></path><path class="watermark-path" d="M147,349c-.48.12-1.09.31-1.82.57a24.37,24.37,0,0,0-2.4,1A28.35,28.35,0,0,0,140,352a20.72,20.72,0,0,0-2.71,1.94c-.7.59-1.28,1.11-1.74,1.57a15.07,15.07,0,0,0-1.1,1.22,4.09,4.09,0,0,0-.59.92,2.32,2.32,0,0,0-.22.64,1.16,1.16,0,0,0,0,.47,1.83,1.83,0,0,0,.18.29,1.15,1.15,0,0,0,1,.37,5.54,5.54,0,0,0,1.51-.38q.87-.35,1.95-.9l2.26-1.18q1.2-.65,2.49-1.29c.87-.44,1.73-.83,2.59-1.17a18.94,18.94,0,0,1,2.6-.81,9.27,9.27,0,0,1,2.46-.29,6.25,6.25,0,0,1,2.24.49,5.12,5.12,0,0,1,1.89,1.47,6.35,6.35,0,0,1,1.41,2.61,6,6,0,0,1,.09,2.6,8.3,8.3,0,0,1-.9,2.52,17.79,17.79,0,0,1-1.62,2.37,23.92,23.92,0,0,1-2,2.15c-.72.67-1.41,1.29-2.09,1.87a33.79,33.79,0,0,1-5.33,3.7,32.29,32.29,0,0,1-4.91,2.28l-3.61-4.3a21.38,21.38,0,0,0,5.39-1.87,27.2,27.2,0,0,0,5.4-3.56,21.59,21.59,0,0,0,2.38-2.27,8.67,8.67,0,0,0,1.18-1.7,2.32,2.32,0,0,0,.27-1.19,1.34,1.34,0,0,0-.28-.74,1.21,1.21,0,0,0-1-.42,4.32,4.32,0,0,0-1.55.34,15.77,15.77,0,0,0-2,.88c-.72.37-1.48.77-2.27,1.21l-2.45,1.3c-.85.45-1.7.85-2.56,1.21a22.37,22.37,0,0,1-2.54.86,10,10,0,0,1-2.43.32,5.76,5.76,0,0,1-2.2-.45,5,5,0,0,1-1.89-1.45,6.12,6.12,0,0,1-1.31-2.41,6,6,0,0,1-.1-2.41,8.28,8.28,0,0,1,.81-2.38,14.06,14.06,0,0,1,1.49-2.24,22.37,22.37,0,0,1,1.85-2.05q1-1,2-1.77c.7-.59,1.44-1.15,2.23-1.7s1.62-1.06,2.44-1.53,1.63-.91,2.43-1.3,1.58-.75,2.3-1L147,349"></path><path class="watermark-path" d="M186.76,337.57l-10.6-12.63,3.92,18.24-4.66,3.91-17.27-7,10.6,12.63-4.86,4.07-15.09-18,6.59-5.54,18.69,7.52-4.15-19.71,6.57-5.52,15.09,18-4.83,4.05"></path><path class="watermark-path" d="M208.84,313.24l-10,8.42,1.16,4.82L194.56,331l-5.68-25.89,5.42-4.55,24.51,10.09-5.42,4.55-4.55-2m-11.23,3.45,6.57-5.52-8.83-3.87,2.26,9.39"></path><path class="watermark-path" d="M227.49,281.38c-.48.12-1.09.31-1.82.57a24.37,24.37,0,0,0-2.4,1,26.11,26.11,0,0,0-2.7,1.47,20.72,20.72,0,0,0-2.71,1.94c-.7.59-1.28,1.11-1.74,1.57a13.39,13.39,0,0,0-1.1,1.22,4.29,4.29,0,0,0-.59.91,2.48,2.48,0,0,0-.22.65,1.16,1.16,0,0,0,0,.47,1.83,1.83,0,0,0,.18.29,1.15,1.15,0,0,0,1,.37,5.54,5.54,0,0,0,1.51-.38q.87-.34,2-.9l2.26-1.18q1.2-.64,2.49-1.29c.87-.44,1.73-.83,2.59-1.17a18.94,18.94,0,0,1,2.6-.81,9.27,9.27,0,0,1,2.46-.29,6.08,6.08,0,0,1,2.24.49,5.09,5.09,0,0,1,1.89,1.46,6.47,6.47,0,0,1,1.41,2.61,6.07,6.07,0,0,1,.09,2.61,8.3,8.3,0,0,1-.9,2.52,16.32,16.32,0,0,1-1.63,2.36,21.41,21.41,0,0,1-2,2.16c-.72.67-1.41,1.29-2.1,1.86a33.36,33.36,0,0,1-5.32,3.71,31.92,31.92,0,0,1-4.92,2.28l-3.6-4.3a21.38,21.38,0,0,0,5.39-1.87,27.2,27.2,0,0,0,5.4-3.56,21.59,21.59,0,0,0,2.38-2.27,8.67,8.67,0,0,0,1.18-1.7A2.32,2.32,0,0,0,231,293a1.34,1.34,0,0,0-.28-.74,1.21,1.21,0,0,0-1-.42,4.32,4.32,0,0,0-1.55.34,16.54,16.54,0,0,0-2,.88c-.71.37-1.47.77-2.26,1.21l-2.46,1.3c-.84.44-1.7.85-2.55,1.21a24.53,24.53,0,0,1-2.54.86A10,10,0,0,1,214,298a5.76,5.76,0,0,1-2.2-.45,5,5,0,0,1-1.89-1.45,6.12,6.12,0,0,1-1.31-2.41,5.78,5.78,0,0,1-.1-2.41,8,8,0,0,1,.81-2.38,14.61,14.61,0,0,1,1.49-2.25,22.26,22.26,0,0,1,1.85-2q1-1,2-1.77c.7-.59,1.44-1.15,2.23-1.7s1.62-1.06,2.44-1.53,1.63-.91,2.43-1.31,1.58-.74,2.3-1l3.5,4.16"></path><path class="watermark-path" d="M261.64,274.74l-6.29-7.5L243,277.61l6.3,7.5-4.86,4.07-15.09-18,4.85-4.08,5.49,6.55L252,263.3l-5.49-6.55,4.86-4.07,15.09,18-4.86,4.08"></path><path class="watermark-path" d="M272.18,265.9l-15.09-18,4.86-4.08,15.09,18-4.86,4.08"></path><path class="watermark-path" d="M299.65,242.85l-22.51-2.18L287.51,253l-4.85,4.08-15.1-18,5.28-4.43,22.56,2.22L285,224.5l4.83-4.06,15.09,18-5.26,4.42"></path><path class="watermark-path" d="M306.68,205.52a31.88,31.88,0,0,1,5.29-3.66,34.48,34.48,0,0,1,5.14-2.35l3.69,4.39a20.77,20.77,0,0,0-2.37.61,20.47,20.47,0,0,0-2.61,1,25.12,25.12,0,0,0-2.76,1.49,23.9,23.9,0,0,0-2.8,2,20.42,20.42,0,0,0-2.8,2.77,12.77,12.77,0,0,0-1.64,2.52,7,7,0,0,0-.68,2.24,6,6,0,0,0,.66,3.64,8.16,8.16,0,0,0,.94,1.38,9.12,9.12,0,0,0,1.08,1.07,6.39,6.39,0,0,0,1.47.91,6.73,6.73,0,0,0,1.88.48,6.54,6.54,0,0,0,2.28-.18,11.67,11.67,0,0,0,2.74-1.07,19.38,19.38,0,0,0,3.18-2.22c.57-.48,1.06-.92,1.46-1.31a14.57,14.57,0,0,0,1-1.13,11.46,11.46,0,0,0,.81-1.05l.74-1.09-1.82-2.17-5.45,4.57-3.31-3.94,10.31-8.65,7.71,9.19a29,29,0,0,1-1.67,2.43q-1,1.26-2.1,2.52c-.74.84-1.5,1.65-2.3,2.44s-1.58,1.5-2.33,2.14a31,31,0,0,1-3.59,2.61,22.55,22.55,0,0,1-3.64,1.83,15.64,15.64,0,0,1-3.63.89,10.72,10.72,0,0,1-3.49-.15,10.45,10.45,0,0,1-3.28-1.33,12.54,12.54,0,0,1-3-2.67,12,12,0,0,1-2.08-3.44,10.45,10.45,0,0,1-.71-3.5,11.14,11.14,0,0,1,.51-3.51,15.72,15.72,0,0,1,1.56-3.43,21.62,21.62,0,0,1,2.42-3.28,30.3,30.3,0,0,1,3.15-3"></path><path class="watermark-path" d="M336.91,211.59l-15.1-18,4.86-4.08,11.79,14,13.13-11,3.31,3.94-18,15.1"></path><path class="watermark-path" d="M374.54,164.71a12.28,12.28,0,0,1,2.59,4.81,10.44,10.44,0,0,1,0,5,14.62,14.62,0,0,1-2.33,5,25.55,25.55,0,0,1-4.56,4.85,26.07,26.07,0,0,1-5.6,3.67,14.79,14.79,0,0,1-5.38,1.43,10.43,10.43,0,0,1-4.94-.89,13.24,13.24,0,0,1-6.87-8.18,10.48,10.48,0,0,1,0-5,14.51,14.51,0,0,1,2.36-5,25.23,25.23,0,0,1,4.57-4.89,25,25,0,0,1,5.59-3.64,14.45,14.45,0,0,1,5.35-1.43,10.31,10.31,0,0,1,4.93.92,12.22,12.22,0,0,1,4.28,3.38m-4.91,4.11a8.36,8.36,0,0,0-2-1.72,5.5,5.5,0,0,0-2.65-.85,7.72,7.72,0,0,0-3.32.57,14.49,14.49,0,0,0-4,2.52,16.72,16.72,0,0,0-2.38,2.4,10.15,10.15,0,0,0-1.39,2.24,6.71,6.71,0,0,0-.56,2.1,5.69,5.69,0,0,0,.1,1.9,6.21,6.21,0,0,0,.61,1.69,9.85,9.85,0,0,0,1,1.44,10.48,10.48,0,0,0,1.26,1.23,6.67,6.67,0,0,0,1.57.92,6.1,6.1,0,0,0,1.85.41,6.8,6.8,0,0,0,2.15-.2,11.06,11.06,0,0,0,2.45-1,17.67,17.67,0,0,0,2.77-1.94,14.39,14.39,0,0,0,3.18-3.52,7.74,7.74,0,0,0,1.14-3.17,5.54,5.54,0,0,0-.37-2.74,8.52,8.52,0,0,0-1.36-2.3"></path><path class="watermark-path" d="M382.66,141.76A32.3,32.3,0,0,1,388,138.1a34.12,34.12,0,0,1,5.15-2.35l3.69,4.4a19.62,19.62,0,0,0-2.37.6,22.08,22.08,0,0,0-2.61,1,26,26,0,0,0-2.77,1.49,23.9,23.9,0,0,0-2.8,2,21,21,0,0,0-2.8,2.78,13.19,13.19,0,0,0-1.64,2.51,7.29,7.29,0,0,0-.68,2.24,6.36,6.36,0,0,0,.06,2,5.8,5.8,0,0,0,.61,1.68,8.12,8.12,0,0,0,.93,1.38,9.16,9.16,0,0,0,1.08,1.08,6.56,6.56,0,0,0,1.48.9,6,6,0,0,0,1.87.48,6.76,6.76,0,0,0,2.28-.17,12,12,0,0,0,2.74-1.08,18.57,18.57,0,0,0,3.18-2.22c.58-.48,1.06-.92,1.46-1.31s.75-.77,1.05-1.12.57-.72.81-1.06l.73-1.09-1.82-2.17-5.45,4.57-3.3-3.94,10.3-8.65,7.71,9.19a29,29,0,0,1-1.67,2.43q-1,1.26-2.1,2.52c-.73.84-1.5,1.66-2.3,2.44s-1.57,1.5-2.33,2.14a31,31,0,0,1-3.59,2.61,22.15,22.15,0,0,1-3.64,1.83,15.56,15.56,0,0,1-3.62.89,11,11,0,0,1-3.49-.14,10.84,10.84,0,0,1-3.28-1.33,12.82,12.82,0,0,1-3-2.68,12.12,12.12,0,0,1-2.08-3.43A10.71,10.71,0,0,1,375,155a11.18,11.18,0,0,1,.51-3.51,15.51,15.51,0,0,1,1.57-3.43,21.44,21.44,0,0,1,2.42-3.28,30.19,30.19,0,0,1,3.14-3"></path><path class="watermark-path" d="M428.63,119.31a12.26,12.26,0,0,1,2.59,4.82,10.44,10.44,0,0,1,0,5,14.53,14.53,0,0,1-2.34,5,25.29,25.29,0,0,1-4.56,4.86,26,26,0,0,1-5.59,3.67,14.84,14.84,0,0,1-5.38,1.43,10.61,10.61,0,0,1-4.95-.89,12.15,12.15,0,0,1-4.3-3.37,12,12,0,0,1-2.56-4.81,10.48,10.48,0,0,1,0-5,14.39,14.39,0,0,1,2.35-5,27.89,27.89,0,0,1,10.16-8.53,14.49,14.49,0,0,1,5.36-1.43,10.27,10.27,0,0,1,4.92.92,12.21,12.21,0,0,1,4.28,3.37m-4.91,4.12a8.17,8.17,0,0,0-2-1.72,5.58,5.58,0,0,0-2.65-.86,7.86,7.86,0,0,0-3.31.58,14.49,14.49,0,0,0-4,2.52,16.21,16.21,0,0,0-2.38,2.4,9.85,9.85,0,0,0-1.4,2.24,7,7,0,0,0-.56,2.1,6,6,0,0,0,.1,1.9,6.23,6.23,0,0,0,.62,1.69,8.49,8.49,0,0,0,1,1.44,9.18,9.18,0,0,0,1.26,1.23,6.67,6.67,0,0,0,1.57.92,6,6,0,0,0,1.84.41,6.86,6.86,0,0,0,2.16-.2,11.26,11.26,0,0,0,2.45-1,17.62,17.62,0,0,0,2.76-1.94,14.67,14.67,0,0,0,3.19-3.52,7.71,7.71,0,0,0,1.13-3.17,5.53,5.53,0,0,0-.36-2.74,8.55,8.55,0,0,0-1.37-2.3"></path></g><rect data-element-id="element-id-13828" stroke-width="2" fill="transparent" class="invisible-element-box grouping-element" x="146" y="106" width="258" height="258" data-element-name="isContainerElementsWrapper"></rect><rect data-element-id="element-id-51451" stroke-width="2" fill="transparent" class="invisible-element-box individual-element" x="146" y="106" width="258" height="258"></rect><rect data-element-id="element-id-44553" stroke-width="2" fill="transparent" class="invisible-element-box individual-element" x="152" y="112" width="245" height="245"></rect><rect data-element-id="element-id-41546" stroke-width="2" fill="transparent" class="invisible-element-box grouping-element" x="208" y="168" width="139" height="135" data-element-name="isIcon"></rect><rect data-element-id="element-id-12593" stroke-width="2" fill="transparent" class="invisible-element-box individual-element" x="208" y="168" width="139" height="135"></rect><rect data-element-id="element-id-63497" stroke-width="2" fill="transparent" class="invisible-element-box individual-element" x="223" y="172" width="65" height="58"></rect><rect data-element-id="element-id-48524" stroke-width="2" fill="transparent" class="invisible-element-box individual-element" x="282" y="206" width="65" height="58"></rect><rect data-element-id="element-id-74209" stroke-width="2" fill="transparent" class="invisible-element-box individual-element" x="223" y="240" width="65" height="58"></rect><rect data-element-id="element-id-24053" stroke-width="2" fill="transparent" class="invisible-element-box individual-element" x="265" y="168" width="73" height="43"></rect><rect data-element-id="element-id-34368" stroke-width="2" fill="transparent" class="invisible-element-box individual-element" x="265" y="260" width="73" height="43"></rect><rect data-element-id="element-id-20495" stroke-width="2" fill="transparent" class="invisible-element-box individual-element" x="208" y="193" width="15" height="84"></rect></svg>